<?xml version="1.0" standalone="no"?>
<!DOCTYPE svg PUBLIC "-//W3C//DTD SVG 20010904//EN"
 "http://www.w3.org/TR/2001/REC-SVG-20010904/DTD/svg10.dtd">
<svg version="1.0" xmlns="http://www.w3.org/2000/svg"
 width="720.000000pt" height="414.000000pt" viewBox="0 0 720.000000 414.000000"
 preserveAspectRatio="xMidYMid meet">

<g transform="translate(0.000000,414.000000) scale(0.100000,-0.100000)"
fill="#000000" stroke="none">
<path d="M3594 3945 c1 -53 -3 -67 -27 -98 -18 -24 -42 -41 -68 -49 -37 -11
-39 -13 -23 -25 22 -16 51 -17 92 -2 24 8 38 24 58 65 30 62 28 106 -9 146
l-23 25 0 -62z"/>
<path d="M3707 3886 c12 -62 -36 -123 -110 -141 -21 -6 -25 -10 -17 -20 7 -9
21 -10 46 -5 48 11 76 32 99 73 16 31 17 40 6 76 -13 44 -31 57 -24 17z"/>
<path d="M3548 3640 c-68 -60 -103 -125 -89 -163 5 -14 14 -28 20 -32 7 -4 6
-13 -3 -28 -12 -18 -13 -48 -6 -167 6 -94 5 -148 -1 -155 -10 -10 -14 -11 -44
-14 -19 -1 -20 -36 -1 -53 11 -10 13 -31 8 -86 -5 -70 -4 -74 24 -103 47 -49
45 -50 -197 -143 -119 -45 -180 -85 -231 -150 -22 -28 -44 -52 -49 -54 -5 -2
-9 42 -9 97 0 85 3 103 16 108 14 5 15 16 10 64 -3 34 -2 61 4 64 15 9 12 45
-4 45 -8 0 -17 8 -20 18 -6 20 1 188 9 217 7 25 -25 78 -61 101 -24 16 -29 16
-52 3 -38 -21 -75 -79 -67 -104 4 -11 9 -68 12 -127 4 -106 4 -108 -17 -108
-19 0 -21 -4 -15 -27 4 -16 7 -49 6 -74 -1 -31 3 -52 14 -62 13 -13 15 -51 15
-243 0 -222 0 -228 -23 -258 -50 -66 -57 -132 -32 -296 19 -131 69 -266 108
-298 8 -7 50 -19 93 -27 112 -22 115 -23 66 -45 -73 -33 -143 -114 -200 -231
-66 -135 -83 -186 -68 -197 6 -4 57 -28 114 -52 152 -64 155 -76 31 -115 -318
-100 -595 -18 -755 223 -44 65 -101 193 -115 259 -31 142 -32 226 -4 403 23
144 27 176 17 160 -5 -8 -15 -51 -21 -95 -7 -44 -20 -114 -29 -155 -13 -59
-17 -127 -17 -315 0 -235 1 -242 28 -325 118 -366 500 -529 908 -389 64 22
175 77 278 138 60 36 57 36 171 -4 110 -38 201 -44 268 -15 89 38 120 85 174
265 16 55 39 129 50 165 21 66 21 62 5 289 l-2 25 195 0 c179 1 200 3 252 24
31 13 68 32 83 43 67 54 112 220 102 384 -7 111 -21 163 -66 255 -31 62 -31
63 -31 230 0 137 3 171 15 184 10 9 15 34 15 71 0 31 5 65 11 76 9 17 7 21
-12 26 -21 6 -22 8 -17 144 l5 138 -38 37 c-37 36 -40 37 -65 24 -35 -19 -74
-67 -74 -91 0 -11 5 -29 11 -40 7 -15 7 -24 -1 -34 -7 -9 -8 -15 0 -20 5 -3
10 -38 10 -76 0 -65 -2 -70 -25 -79 -22 -8 -24 -13 -15 -29 5 -11 10 -44 10
-75 0 -35 5 -60 15 -70 11 -11 15 -38 15 -107 l0 -92 -52 51 c-64 63 -120 93
-320 172 -86 33 -159 66 -161 73 -3 7 6 24 20 38 21 23 24 35 24 107 0 45 4
84 10 87 5 4 9 17 9 30 0 18 -6 24 -27 27 l-28 3 -3 115 c-2 71 2 129 9 152
10 32 9 41 -5 63 -15 23 -15 28 -1 47 21 31 19 60 -8 99 -25 36 -110 129 -118
129 -3 0 -30 -23 -61 -50z m27 -205 c0 -22 -22 -30 -44 -16 -21 14 -5 43 21
39 15 -2 23 -10 23 -23z m110 0 c0 -22 -31 -33 -47 -17 -17 17 -1 44 24 40 15
-2 23 -10 23 -23z m-100 -107 c3 -13 5 -70 3 -128 l-3 -105 -32 -3 -33 -3 0
130 0 131 30 0 c22 0 31 -5 35 -22z m103 -110 l-3 -133 -25 3 c-14 2 -27 5
-28 7 -7 6 -3 235 3 245 3 6 17 10 31 10 l25 0 -3 -132z m-802 -139 c10 -17
-13 -36 -27 -22 -12 12 -4 33 11 33 5 0 12 -5 16 -11z m64 -15 c0 -16 -16 -19
-25 -4 -8 13 4 32 16 25 5 -4 9 -13 9 -21z m1380 7 c0 -11 -26 -22 -34 -14
-12 12 -5 23 14 23 11 0 20 -4 20 -9z m50 -1 c0 -5 -4 -10 -10 -10 -5 0 -10 5
-10 10 0 6 5 10 10 10 6 0 10 -4 10 -10z m-1485 -104 c9 -70 4 -91 -20 -91
-18 0 -20 8 -23 73 -3 66 -1 72 17 72 16 0 21 -9 26 -54z m55 -21 c0 -60 -3
-75 -15 -75 -20 0 -28 39 -22 97 3 27 6 49 6 51 1 1 8 2 16 2 12 0 15 -15 15
-75z m1384 44 c3 -17 6 -49 6 -70 0 -37 -2 -39 -30 -39 l-30 0 0 63 c0 68 4
77 30 77 12 0 20 -11 24 -31z m54 -36 c-2 -53 -6 -68 -18 -68 -11 0 -16 14
-18 54 -4 63 2 81 23 81 13 0 15 -11 13 -67z m-1283 -513 c-8 -32 -10 -62 -5
-86 19 -82 135 -209 355 -388 149 -121 143 -117 182 -144 l32 -23 83 42 c78
39 216 127 265 168 29 24 43 60 53 141 8 56 8 51 5 -45 -5 -192 -48 -250 -283
-392 l-23 -14 35 -50 c20 -27 36 -58 36 -69 0 -17 -7 -20 -49 -20 -28 0 -53 4
-56 10 -3 5 -26 24 -51 41 l-45 31 -111 -36 c-102 -33 -120 -36 -234 -36 -115
0 -151 8 -122 27 14 8 239 96 296 115 17 6 32 17 32 23 0 6 -42 42 -92 81
-131 98 -143 109 -234 199 -51 51 -91 103 -109 138 -24 51 -27 65 -23 139 3
62 11 98 31 141 32 71 50 75 32 7z m670 -1127 c11 -6 30 -22 43 -36 33 -35 21
-67 -47 -136 -82 -82 -159 -105 -271 -80 -111 24 -559 227 -568 256 -5 17 58
19 468 13 242 -3 361 -9 375 -17z"/>
<path d="M2906 3336 c4 -19 0 -28 -20 -41 -34 -22 -33 -32 2 -32 35 0 55 39
39 75 -13 30 -29 28 -21 -2z"/>
<path d="M4350 3331 c0 -11 -11 -28 -25 -39 -29 -23 -30 -28 -9 -36 36 -14 76
69 44 89 -5 3 -10 -3 -10 -14z"/>
<path d="M2477 2237 c-3 -9 3 -13 17 -13 17 1 22 -6 27 -39 6 -39 6 -39 8 -7
0 18 -4 42 -9 53 -12 22 -35 25 -43 6z"/>
<path d="M4772 2145 c-11 -13 -9 -15 14 -15 26 0 26 -1 22 -59 -2 -33 -1 -58
4 -55 13 8 9 119 -4 132 -15 15 -20 15 -36 -3z"/>
<path d="M5122 2148 c-7 -7 -12 -16 -12 -20 0 -4 -20 -51 -45 -104 -25 -52
-45 -105 -45 -118 0 -12 20 -103 44 -202 67 -271 68 -284 11 -270 -18 5 -40
36 -89 129 -37 67 -78 142 -92 167 -14 25 -34 62 -45 83 l-20 38 -32 -43 c-17
-24 -44 -69 -60 -101 -33 -67 -32 -80 17 -182 22 -46 31 -74 25 -81 -6 -7 -59
-14 -132 -16 -139 -6 -174 -17 -228 -75 -68 -71 -109 -183 -109 -294 0 -54 71
-146 173 -222 127 -95 318 -122 443 -62 89 43 177 179 201 308 20 112 20 112
84 109 82 -3 94 11 93 106 0 68 -24 227 -55 377 -19 91 -48 219 -62 280 -8 33
-20 93 -27 133 -12 73 -17 81 -38 60z m-132 -961 c45 -38 80 -85 75 -100 -12
-31 -108 -85 -172 -98 -51 -11 -78 -10 -140 0 -93 16 -154 43 -251 111 -99 70
-96 83 23 91 185 11 449 9 465 -4z"/>
<path d="M2511 2129 c-3 -40 -81 -74 -100 -42 -10 17 -10 17 -11 -3 0 -29 25
-48 54 -40 30 7 69 60 63 84 -4 14 -5 14 -6 1z"/>
<path d="M2071 2071 c-6 -30 -10 -56 -8 -58 7 -6 29 85 25 99 -3 7 -10 -11
-17 -41z"/>
<path d="M4694 1989 c5 -33 22 -59 39 -59 13 0 67 50 67 62 0 5 -13 2 -28 -6
-30 -16 -62 -6 -62 19 0 8 -5 15 -11 15 -6 0 -8 -13 -5 -31z"/>
<path d="M2477 1953 c-12 -11 -8 -25 5 -17 6 4 17 -1 25 -11 13 -19 18 -9 7
19 -6 16 -26 21 -37 9z"/>
<path d="M2511 1854 c0 -11 3 -14 6 -6 3 7 2 16 -1 19 -3 4 -6 -2 -5 -13z"/>
<path d="M2391 1798 c-1 -21 6 -43 14 -52 26 -26 79 14 103 79 2 6 -7 -3 -20
-18 -31 -37 -79 -35 -89 3 -6 22 -7 20 -8 -12z"/>
<path d="M2372 1528 c-6 -19 -27 -60 -46 -91 -57 -94 -57 -93 21 -107 76 -13
192 -43 270 -71 39 -13 54 -15 60 -6 17 23 106 207 102 210 -2 2 -62 18 -134
36 -71 17 -140 36 -151 41 -12 4 -41 11 -65 15 -43 6 -45 6 -57 -27z"/>
<path d="M4120 1482 c-19 -6 -50 -33 -50 -43 0 -4 13 0 30 9 28 16 30 16 47
-1 14 -14 18 -34 18 -101 0 -75 -3 -87 -29 -124 -21 -31 -37 -43 -64 -48 -49
-9 -67 5 -67 54 0 22 -3 38 -7 35 -5 -2 -8 -32 -8 -65 0 -67 14 -87 61 -88 51
0 117 107 126 206 11 117 -12 181 -57 166z"/>
<path d="M4112 965 c-30 -22 -80 -96 -87 -131 -5 -24 -3 -23 14 11 24 48 49
78 78 94 30 15 30 15 48 -19 28 -54 10 -146 -33 -169 -46 -25 -111 -6 -113 32
-1 15 -4 11 -10 -13 -16 -66 12 -120 62 -120 38 0 84 58 109 139 23 72 24 100
9 154 -11 42 -37 49 -77 22z"/>
<path d="M4204 425 c-7 -18 12 -45 32 -45 15 0 28 35 19 50 -9 15 -45 12 -51
-5z"/>
<path d="M1897 423 c-4 -3 -7 -69 -7 -145 l0 -138 67 0 c128 0 192 58 180 162
-11 88 -64 128 -171 128 -34 0 -66 -3 -69 -7z m160 -68 c32 -36 31 -104 0
-141 -17 -20 -33 -27 -63 -28 l-39 -1 -3 104 -3 104 43 -6 c29 -4 50 -14 65
-32z"/>
<path d="M2925 408 c-3 -13 -4 -77 -3 -143 l3 -120 25 0 25 0 0 140 c0 137 0
140 -22 143 -16 2 -24 -3 -28 -20z"/>
<path d="M3216 423 c-3 -3 -6 -69 -6 -145 l0 -139 28 3 27 3 0 139 c0 134 -1
139 -21 142 -12 2 -24 1 -28 -3z"/>
<path d="M3965 418 c-3 -8 -4 -72 -3 -144 l3 -129 28 -3 c26 -3 27 -2 27 46 0
31 5 54 14 61 12 10 20 1 47 -48 27 -53 36 -61 60 -61 16 0 29 5 29 10 0 6
-18 40 -40 76 -22 36 -40 68 -40 70 0 3 16 28 35 57 43 64 45 82 8 72 -16 -4
-29 -7 -29 -8 -1 -1 -16 -26 -34 -55 -18 -29 -36 -50 -41 -45 -4 4 -9 31 -11
58 -3 43 -6 50 -26 53 -12 2 -24 -3 -27 -10z"/>
<path d="M4408 424 c-3 -5 -3 -71 0 -146 l5 -138 61 0 c85 0 126 25 126 78 0
20 -7 48 -17 61 -13 19 -14 28 -5 42 18 28 14 64 -8 84 -21 19 -153 35 -162
19z m106 -47 c29 -21 16 -51 -22 -55 -29 -3 -32 -1 -32 26 0 44 19 54 54 29z
m14 -109 c7 -7 12 -24 12 -38 0 -14 -5 -31 -12 -38 -17 -17 -55 -15 -62 4 -8
21 -8 69 1 77 11 11 48 8 61 -5z"/>
<path d="M4856 363 c-23 -33 -24 -39 -11 -53 10 -11 15 -38 15 -80 0 -70 13
-89 62 -90 36 0 47 20 20 38 -18 12 -22 24 -22 68 0 47 2 54 20 54 25 0 26 25
2 42 -11 7 -24 23 -31 36 -16 31 -26 28 -55 -15z"/>
<path d="M4217 354 c-4 -4 -7 -54 -7 -111 l0 -103 25 0 26 0 -3 107 c-2 88 -6
108 -18 111 -9 1 -19 0 -23 -4z"/>
<path d="M2220 338 c-67 -36 -67 -160 0 -188 41 -17 114 -9 118 13 3 14 -4 17
-47 17 -39 0 -51 4 -51 15 0 8 -1 18 -2 22 -2 4 20 6 48 4 63 -3 77 11 64 61
-6 20 -17 41 -24 47 -22 19 -79 23 -106 9z m65 -53 c0 -13 -8 -21 -23 -23 -26
-4 -42 25 -21 39 22 14 44 6 44 -16z"/>
<path d="M2422 326 c-17 -15 -33 -40 -37 -56 -8 -38 11 -96 38 -115 26 -18
108 -20 125 -3 21 21 13 28 -32 28 -43 0 -74 19 -62 39 3 5 31 8 62 8 l56 -2
-5 39 c-7 48 -31 73 -78 81 -29 5 -41 2 -67 -19z m78 -31 c15 -18 13 -21 -23
-30 -23 -6 -27 -4 -27 13 0 18 11 29 31 31 4 1 12 -6 19 -14z"/>
<path d="M2658 343 l-48 -4 0 -100 c0 -99 0 -99 25 -99 14 0 25 3 25 8 4 63
12 137 16 143 8 13 38 11 52 -3 7 -7 12 -41 12 -81 l0 -68 28 3 c26 3 27 5 30
68 2 47 -3 75 -15 100 -19 38 -31 41 -125 33z"/>
<path d="M3046 331 c-29 -32 -18 -73 26 -96 50 -26 48 -43 -4 -47 -35 -2 -43
-7 -43 -23 0 -17 8 -20 48 -23 61 -4 97 17 97 56 0 31 -31 65 -68 77 -34 10
-21 30 22 33 29 3 36 7 34 20 -5 27 -89 29 -112 3z"/>
<path d="M3348 340 c-34 -21 -21 -40 27 -40 59 0 60 -23 3 -36 -57 -12 -81
-50 -58 -92 15 -25 20 -27 88 -28 40 0 75 3 79 8 9 16 -8 155 -21 173 -15 20
-93 30 -118 15z m80 -132 c-3 -25 -34 -36 -50 -20 -17 17 -1 42 27 42 22 0 26
-4 23 -22z"/>
<path d="M3625 340 c-11 -4 -33 -5 -49 -2 -37 7 -43 -5 -45 -96 -1 -87 6 -105
40 -100 22 3 24 8 29 78 5 68 7 75 27 78 26 4 31 -12 35 -98 3 -52 5 -55 30
-58 l27 -3 3 78 c3 76 4 78 28 78 24 0 25 -2 28 -78 l3 -78 27 3 c25 3 27 7
30 58 7 115 -28 158 -111 137 -27 -7 -42 -6 -50 2 -13 13 -24 13 -52 1z"/>
<path d="M4668 339 c-10 -5 -18 -17 -18 -26 0 -12 7 -14 38 -10 40 7 69 -4 58
-22 -4 -6 -20 -11 -35 -11 -41 0 -72 -29 -73 -67 -2 -52 14 -62 98 -61 l74 1
0 71 c0 69 -13 107 -44 128 -16 11 -78 9 -98 -3z m77 -129 c0 -18 -6 -26 -23
-28 -27 -4 -40 22 -22 44 19 22 45 13 45 -16z"/>
<path d="M5306 343 c-4 -4 -26 -7 -49 -8 l-42 0 0 -95 0 -95 28 -3 c27 -3 27
-3 27 62 0 76 6 96 29 96 31 0 41 -22 41 -92 0 -65 1 -68 24 -68 22 0 25 5 31
53 9 72 -8 135 -41 147 -30 12 -38 12 -48 3z"/>
<path d="M5013 318 c-42 -47 -33 -141 17 -168 33 -18 124 -9 128 12 3 14 -6
17 -50 20 -45 3 -53 6 -53 23 0 18 8 20 63 23 67 3 71 8 52 58 -15 39 -39 53
-91 54 -35 0 -50 -5 -66 -22z m95 -31 c3 -14 -4 -17 -32 -17 -41 0 -42 2 -20
25 20 20 48 16 52 -8z"/>
</g>
</svg>
